<svg width="802" height="333" viewBox="0 0 802 333" fill="none" xmlns="http://www.w3.org/2000/svg">
<rect width="802" height="333" fill="#2A8513"/>
<line x1="0.998672" y1="332.5" x2="800.998" y2="330.375" stroke="black"/>
<line x1="1" y1="0.5" x2="797" y2="0.5" stroke="black"/>
<line x1="1.5" y1="1" x2="1.5" y2="333" stroke="black"/>
<line x1="797.5" y1="0.99394" x2="801.5" y2="330.994" stroke="black"/>
<path d="M74.5364 110C74.5364 104.771 72.8163 95.3157 75.5364 90.5556C77.9651 86.3053 84.6422 83.0034 88.5364 80.5C91.9679 78.2941 97.4233 73.2285 101.536 73C107.006 72.6961 112.032 72 117.536 72C121.952 72 126.398 71 131.036 71C136.725 71 140.734 71.7661 146.036 72.9444C157.547 75.5022 164.944 85.2101 171.536 94" stroke="black" stroke-width="3" stroke-linecap="round"/>
<path d="M169.857 90C171.39 104.609 172 119.227 172 135.28C172 144.959 172 154.638 172 164.317C172 174.341 171.563 183.701 171.19 193.576C170.481 212.364 169.429 230.873 169.429 249.981C169.429 256.805 169.429 263.628 169.429 270.452C169.429 273.277 169.214 275.188 169.214 277.739C169.214 279.806 169.407 286.004 169 281.243" stroke="black" stroke-width="3" stroke-linecap="round"/>
<path d="M232 283C232 270.871 232 258.741 232 246.612C232 225.628 233.804 205.226 233.804 184.153C233.804 174.816 233.804 165.478 233.804 156.141C233.804 148.205 232.408 138.523 234.005 130.791C234.916 126.379 234.706 121.998 234.706 117.478C234.706 112.207 236.762 106.493 238.115 101.503C240.067 94.2988 241.001 85.8515 241.974 78.3168C243.482 66.6351 253.236 68.2681 261.32 66.2799C264.268 65.5549 271.11 63.5299 273.499 66.8346C274.04 67.5827 278.375 69.3307 279.363 69.3307C281.789 69.3307 283.159 72.9379 286.129 73.3246C289.483 73.7612 295.636 79.4217 298.76 81.5341C302.68 84.1856 305.511 89.8492 308.282 93.7929C315.283 103.754 314.998 115.958 314.998 128.24" stroke="black" stroke-width="3" stroke-linecap="round"/>
<path d="M377.239 126.004C377.239 115.12 376.701 104.77 377.239 94.0041C377.468 89.4231 381.261 89.1102 384.795 87.5041C389.137 85.5302 396.147 82.0041 400.739 82.0041C407.317 82.0041 411.454 81.7736 417.239 84.7818C424.753 88.6888 433.373 95.59 436.017 104.004C438.56 112.094 446.769 119.057 448.295 127.449C448.893 130.741 452.573 134.415 454.017 137.449C456.097 141.817 457.735 148.031 458.795 152.726C464.25 176.884 472.152 200.271 469.184 225.504C468.125 234.505 465.529 242.461 462.239 250.782C459.629 257.384 456.855 265.406 452.017 270.782C445.525 277.995 431.813 275.004 422.739 275.004C417.759 275.004 412.456 270.526 407.239 270.004C402.769 269.557 399.239 264.142 399.239 260.004" stroke="black" stroke-width="3" stroke-linecap="round"/>
<path d="M521 240C525.506 251.546 529.978 262.423 538.778 271.222C546.171 278.615 554.758 277 565 277" stroke="black" stroke-width="3" stroke-linecap="round"/>
<path d="M566 276.671C568.565 276.671 573.06 278.028 575.202 275.231C576.741 273.222 577.97 269.38 578.5 266.264C578.871 264.086 580.773 261.816 580.842 259.733C580.937 256.86 581.085 253.246 582.161 250.987C585.178 244.66 584.998 230.788 584.998 222.924C584.998 211.023 584.998 199.122 584.998 187.221C584.998 184.04 584.156 182.465 583.844 179.583C583.596 177.294 583.909 174.817 583.778 172.498C583.521 167.984 582.623 163.084 582.623 158.604C582.623 149.269 581.338 140.172 580.117 131.205C577.866 114.683 579.061 63.4433 579.061 80.3914" stroke="black" stroke-width="3" stroke-linecap="round"/>
<path d="M735 241C735 249.98 732.814 252.74 727.556 259.5C726.192 261.253 723.986 262.171 722 263.222C720.757 263.88 719.411 264.743 718 264.944C715.17 265.349 716.32 267.081 714.778 268.778C714.175 269.441 712.89 268.621 712.222 269.222C711.175 270.165 710.961 271.351 709.5 272C707.088 273.072 705.471 273.617 703 274.5C697.525 276.455 691.749 276 686 276C680.407 276 674.815 276 669.222 276C661.361 276 658.483 274.698 654 268.222C647.277 258.511 642.511 244.589 641.056 232.944C639.261 218.584 636 205.205 636 190.5C636 176.777 635 163.492 635 149.889C635 136.278 635 122.667 635 109.056C635 98.6072 635.158 89.475 632 80" stroke="black" stroke-width="3" stroke-linecap="round"/>
</svg>
